<svg width="86" height="29" viewBox="0 0 86 29" fill="none" xmlns="http://www.w3.org/2000/svg">
<path d="M79.75 0H6.75C3.43629 0 0.75 2.68629 0.75 6V17C0.75 20.3137 3.43629 23 6.75 23H79.75C83.0637 23 85.75 20.3137 85.75 17V6C85.75 2.68629 83.0637 0 79.75 0Z" fill="#363733"/>
<path d="M16.1677 9.02586C16.013 9.02586 15.8803 8.97809 15.7698 8.88254C15.6592 8.78197 15.6039 8.65876 15.6039 8.51293C15.6039 8.37213 15.6592 8.25144 15.7698 8.15086C15.8803 8.05029 16.013 8 16.1677 8C16.328 8 16.4607 8.05029 16.5657 8.15086C16.6762 8.25144 16.7315 8.37213 16.7315 8.51293C16.7315 8.65876 16.6762 8.78197 16.5657 8.88254C16.4607 8.97809 16.328 9.02586 16.1677 9.02586ZM14.8578 15L14.75 14.2909H15.3718C15.615 14.2909 15.7366 14.1728 15.7366 13.9364V9.71983H16.6071V13.8761C16.6071 14.2231 16.5104 14.4971 16.317 14.6983C16.129 14.8994 15.8471 15 15.4713 15H14.8578ZM19.3558 13.4159C18.98 13.4159 18.6484 13.343 18.361 13.1972C18.0735 13.0463 17.8497 12.8351 17.6894 12.5636C17.5291 12.292 17.449 11.9702 17.449 11.5981V11.4397C17.449 11.0726 17.5291 10.7532 17.6894 10.4817C17.8497 10.2101 18.0735 10.0014 18.361 9.8556C18.6484 9.70474 18.98 9.62931 19.3558 9.62931C19.7317 9.62931 20.0633 9.70474 20.3507 9.8556C20.6381 10.0014 20.862 10.2101 21.0223 10.4817C21.1881 10.7532 21.271 11.0726 21.271 11.4397V11.5981C21.271 11.9702 21.1881 12.292 21.0223 12.5636C20.862 12.8351 20.6381 13.0463 20.3507 13.1972C20.0633 13.343 19.7317 13.4159 19.3558 13.4159ZM19.3558 12.7069C19.6709 12.7069 19.9224 12.6139 20.1103 12.4278C20.3038 12.2367 20.4005 11.9526 20.4005 11.5754V11.4623C20.4005 11.0902 20.3038 10.8085 20.1103 10.6175C19.9224 10.4264 19.6709 10.3308 19.3558 10.3308C19.0408 10.3308 18.7893 10.4264 18.6014 10.6175C18.4135 10.8085 18.3195 11.0902 18.3195 11.4623V11.5754C18.3195 11.9526 18.4135 12.2367 18.6014 12.4278C18.7893 12.6139 19.0408 12.7069 19.3558 12.7069ZM23.5924 13.4159C23.1115 13.4159 22.7301 13.3229 22.4482 13.1369C22.1664 12.9508 21.9867 12.7069 21.9093 12.4052L22.7053 12.1336C22.755 12.3247 22.8545 12.4756 23.0037 12.5862C23.1585 12.6918 23.3492 12.7446 23.5758 12.7446C23.8135 12.7446 24.0014 12.7044 24.1396 12.6239C24.2777 12.5384 24.3468 12.4228 24.3468 12.2769C24.3468 12.1361 24.2833 12.033 24.1561 11.9677C24.0345 11.9023 23.866 11.8545 23.6504 11.8244L23.1944 11.764C22.8462 11.7187 22.5671 11.6056 22.357 11.4246C22.1525 11.2435 22.0503 10.9996 22.0503 10.6929C22.0503 10.4767 22.1139 10.2906 22.241 10.1347C22.3736 9.97378 22.5533 9.85057 22.7799 9.76509C23.012 9.67457 23.2746 9.62931 23.5675 9.62931C24.3634 9.62931 24.8774 9.90338 25.1096 10.4515L24.4049 10.7608C24.3441 10.6049 24.239 10.4867 24.0898 10.4063C23.9461 10.3208 23.7692 10.278 23.5592 10.278C23.3602 10.278 23.1944 10.3157 23.0618 10.3912C22.9291 10.4666 22.8628 10.5697 22.8628 10.7004C22.8628 10.8261 22.9181 10.9217 23.0286 10.9871C23.1447 11.0524 23.316 11.1002 23.5426 11.1304L23.9986 11.1907C24.3413 11.241 24.626 11.3466 24.8526 11.5075C25.0792 11.6634 25.1925 11.9073 25.1925 12.2392C25.1925 12.5963 25.0488 12.8829 24.7614 13.0991C24.4795 13.3103 24.0898 13.4159 23.5924 13.4159ZM27.7436 13.4159C27.3677 13.4159 27.0361 13.343 26.7487 13.1972C26.4668 13.0463 26.2457 12.8351 26.0854 12.5636C25.9251 12.287 25.845 11.9626 25.845 11.5905V11.4472C25.845 11.1052 25.9251 10.7985 26.0854 10.5269C26.2457 10.2504 26.4668 10.0316 26.7487 9.87069C27.0361 9.70977 27.3649 9.62931 27.7353 9.62931C28.1387 9.62931 28.4759 9.70726 28.7467 9.86315C29.0176 10.019 29.2221 10.2277 29.3603 10.4892C29.4984 10.7457 29.5675 11.0323 29.5675 11.3491V11.6659H26.6989C26.71 12.0029 26.8095 12.2644 26.9974 12.4504C27.1853 12.6315 27.4396 12.722 27.7601 12.722C28.2465 12.722 28.5809 12.5183 28.7633 12.111L29.5012 12.4052C29.363 12.727 29.1447 12.9759 28.8462 13.1519C28.5533 13.3279 28.1857 13.4159 27.7436 13.4159ZM27.7353 10.2856C27.481 10.2856 27.2627 10.356 27.0803 10.4968C26.8979 10.6325 26.7791 10.8287 26.7238 11.0851H28.7136C28.6859 10.8437 28.592 10.6501 28.4317 10.5043C28.2714 10.3585 28.0393 10.2856 27.7353 10.2856ZM30.4155 15V9.71983H31.286V10.2328C31.4131 10.0467 31.5789 9.90086 31.7834 9.79526C31.9935 9.68463 32.2422 9.62931 32.5296 9.62931C33.0049 9.62931 33.3946 9.78772 33.6986 10.1045C34.0081 10.4213 34.1629 10.8689 34.1629 11.4472V11.5981C34.1629 12.1764 34.0081 12.6239 33.6986 12.9407C33.3946 13.2575 33.0049 13.4159 32.5296 13.4159C32.2422 13.4159 31.9935 13.3631 31.7834 13.2575C31.5789 13.1469 31.4131 12.996 31.286 12.805V15H30.4155ZM32.314 12.7069C32.5849 12.7069 32.8143 12.6214 33.0022 12.4504C33.1956 12.2795 33.2924 11.9928 33.2924 11.5905V11.4472C33.2924 11.0499 33.1956 10.7658 33.0022 10.5948C32.8143 10.4188 32.5849 10.3308 32.314 10.3308C32.1759 10.3308 32.0487 10.3534 31.9327 10.3987C31.8166 10.4389 31.6922 10.5169 31.5596 10.6325C31.4656 10.713 31.3938 10.801 31.344 10.8966C31.2943 10.9921 31.2694 11.1078 31.2694 11.2435V11.7942C31.2694 11.935 31.2943 12.0532 31.344 12.1487C31.3938 12.2443 31.4656 12.3297 31.5596 12.4052C31.6922 12.5259 31.8166 12.6063 31.9327 12.6466C32.0487 12.6868 32.1759 12.7069 32.314 12.7069ZM34.9978 13.3254V8.04526H35.8684V10.2856C35.9844 10.0844 36.1447 9.92601 36.3492 9.81034C36.5593 9.68966 36.8135 9.62931 37.112 9.62931C37.5541 9.62931 37.8885 9.74497 38.1152 9.97629C38.3473 10.2076 38.4634 10.5244 38.4634 10.9267V13.3254H37.5928V10.9946C37.5928 10.7733 37.5265 10.6074 37.3939 10.4968C37.2667 10.3811 37.0982 10.3233 36.8881 10.3233C36.7278 10.3233 36.5869 10.3509 36.4653 10.4063C36.3437 10.4616 36.2332 10.5395 36.1337 10.6401C36.0397 10.7306 35.9706 10.8261 35.9264 10.9267C35.8877 11.0273 35.8684 11.153 35.8684 11.3039V13.3254H34.9978ZM40.9122 13.3254C40.5308 13.3254 40.2489 13.2299 40.0665 13.0388C39.8841 12.8427 39.7929 12.5711 39.7929 12.2241V10.3912H39.0468V9.71983H39.7929V8.74677L40.6635 8.58082V9.71983H41.8076V10.3912H40.6635V12.2543C40.6635 12.4957 40.7961 12.6164 41.0614 12.6164H41.8739L41.7495 13.3254H40.9122ZM43.6322 13.4159C43.2453 13.4159 42.933 13.3179 42.6953 13.1218C42.4632 12.9206 42.3471 12.6566 42.3471 12.3297C42.3471 11.6961 42.7727 11.329 43.6239 11.2284L44.4695 11.1228C44.7072 11.0977 44.826 10.9946 44.826 10.8136C44.826 10.6476 44.7514 10.5194 44.6022 10.4289C44.4585 10.3384 44.2788 10.2931 44.0633 10.2931C43.8422 10.2931 43.6543 10.3459 43.4995 10.4515C43.3503 10.5521 43.2508 10.6929 43.201 10.8739L42.43 10.6703C42.5019 10.3786 42.6787 10.1322 42.9606 9.93103C43.248 9.72989 43.6156 9.62931 44.0633 9.62931C44.5773 9.62931 44.9753 9.73994 45.2572 9.96121C45.539 10.1825 45.68 10.5144 45.68 10.9569V13.3254H44.8592V12.6541C44.7763 12.8904 44.6298 13.0765 44.4198 13.2123C44.2098 13.3481 43.9472 13.4159 43.6322 13.4159ZM43.7814 12.7522C44.0965 12.7522 44.3479 12.6591 44.5359 12.4731C44.7293 12.282 44.826 12.0431 44.826 11.7565V11.5905C44.7708 11.6358 44.7044 11.6685 44.6271 11.6886C44.5552 11.7087 44.4723 11.7238 44.3783 11.7338L43.7648 11.7942C43.3779 11.8394 43.1845 12.0104 43.1845 12.3071C43.1845 12.4429 43.237 12.551 43.342 12.6315C43.447 12.7119 43.5935 12.7522 43.7814 12.7522ZM48.2495 15C47.8073 15 47.4398 14.912 47.1468 14.736C46.8539 14.56 46.6632 14.3111 46.5748 13.9892L47.3873 13.7403C47.437 13.9213 47.5365 14.0621 47.6857 14.1627C47.8405 14.2633 48.0422 14.3136 48.291 14.3136H48.5231C48.7884 14.3136 48.9929 14.2432 49.1366 14.1024C49.2803 13.9616 49.3522 13.7478 49.3522 13.4612V12.7522C49.0869 13.1343 48.6834 13.3254 48.1417 13.3254C47.8211 13.3254 47.531 13.2575 47.2712 13.1218C47.0169 12.981 46.8152 12.7798 46.666 12.5183C46.5223 12.2518 46.4504 11.93 46.4504 11.5528V11.4019C46.4504 11.0248 46.5223 10.7055 46.666 10.444C46.8152 10.1774 47.0169 9.97629 47.2712 9.84052C47.531 9.69971 47.8211 9.62931 48.1417 9.62931C48.6834 9.62931 49.0869 9.8204 49.3522 10.2026V9.71983H50.2227V13.431C50.2227 13.9239 50.0818 14.3085 49.7999 14.5851C49.518 14.8617 49.0979 15 48.5397 15H48.2495ZM48.3075 12.6164C48.5784 12.6164 48.8216 12.5208 49.0371 12.3297C49.1366 12.2392 49.214 12.1437 49.2693 12.0431C49.3245 11.9375 49.3522 11.8143 49.3522 11.6735V11.2813C49.3522 11.1354 49.3245 11.0122 49.2693 10.9116C49.214 10.8111 49.1366 10.7155 49.0371 10.625C48.8216 10.4289 48.5784 10.3308 48.3075 10.3308C48.0257 10.3308 47.7907 10.4138 47.6028 10.5797C47.4149 10.7457 47.3209 11.0248 47.3209 11.417V11.5302C47.3209 11.9274 47.4149 12.2091 47.6028 12.375C47.7907 12.5359 48.0257 12.6164 48.3075 12.6164ZM51.2393 13.3254V8.04526H52.1098V13.3254H51.2393ZM53.549 9.02586C53.3943 9.02586 53.2616 8.97809 53.1511 8.88254C53.0405 8.78197 52.9853 8.65876 52.9853 8.51293C52.9853 8.37213 53.0405 8.25144 53.1511 8.15086C53.2616 8.05029 53.3943 8 53.549 8C53.7093 8 53.842 8.05029 53.947 8.15086C54.0575 8.25144 54.1128 8.37213 54.1128 8.51293C54.1128 8.65876 54.0575 8.78197 53.947 8.88254C53.842 8.97809 53.7093 9.02586 53.549 9.02586ZM53.1179 13.3254V9.71983H53.9884V13.3254H53.1179ZM56.1816 13.4159C55.7947 13.4159 55.4824 13.3179 55.2448 13.1218C55.0126 12.9206 54.8965 12.6566 54.8965 12.3297C54.8965 11.6961 55.3221 11.329 56.1733 11.2284L57.019 11.1228C57.2566 11.0977 57.3755 10.9946 57.3755 10.8136C57.3755 10.6476 57.3009 10.5194 57.1516 10.4289C57.0079 10.3384 56.8283 10.2931 56.6127 10.2931C56.3916 10.2931 56.2037 10.3459 56.049 10.4515C55.8997 10.5521 55.8002 10.6929 55.7505 10.8739L54.9795 10.6703C55.0513 10.3786 55.2282 10.1322 55.5101 9.93103C55.7975 9.72989 56.165 9.62931 56.6127 9.62931C57.1268 9.62931 57.5247 9.73994 57.8066 9.96121C58.0885 10.1825 58.2294 10.5144 58.2294 10.9569V13.3254H57.4086V12.6541C57.3257 12.8904 57.1793 13.0765 56.9692 13.2123C56.7592 13.3481 56.4967 13.4159 56.1816 13.4159ZM56.3308 12.7522C56.6459 12.7522 56.8974 12.6591 57.0853 12.4731C57.2788 12.282 57.3755 12.0431 57.3755 11.7565V11.5905C57.3202 11.6358 57.2539 11.6685 57.1765 11.6886C57.1047 11.7087 57.0217 11.7238 56.9278 11.7338L56.3143 11.7942C55.9274 11.8394 55.7339 12.0104 55.7339 12.3071C55.7339 12.4429 55.7864 12.551 55.8914 12.6315C55.9965 12.7119 56.1429 12.7522 56.3308 12.7522ZM61.3446 13.4159C61.0517 13.4159 60.803 13.3631 60.5985 13.2575C60.3939 13.1469 60.2281 12.996 60.101 12.805V13.3254H59.2305V8.04526H60.101V10.2328C60.2281 10.0467 60.3939 9.90086 60.5985 9.79526C60.803 9.68463 61.0517 9.62931 61.3446 9.62931C61.6597 9.62931 61.9388 9.70223 62.182 9.84806C62.4307 9.98886 62.6242 10.195 62.7623 10.4666C62.906 10.7331 62.9779 11.06 62.9779 11.4472V11.5981C62.9779 11.9853 62.906 12.3147 62.7623 12.5862C62.6242 12.8527 62.4307 13.0589 62.182 13.2047C61.9388 13.3455 61.6597 13.4159 61.3446 13.4159ZM61.1208 12.7069C61.3971 12.7069 61.6293 12.6214 61.8172 12.4504C62.0106 12.2795 62.1074 11.9928 62.1074 11.5905V11.4472C62.1074 11.0499 62.0106 10.7658 61.8172 10.5948C61.6293 10.4188 61.3971 10.3308 61.1208 10.3308C60.9881 10.3308 60.861 10.3534 60.7394 10.3987C60.6233 10.4389 60.499 10.5169 60.3663 10.6325C60.2779 10.713 60.2088 10.801 60.159 10.8966C60.1093 10.9921 60.0844 11.1078 60.0844 11.2435V11.7942C60.0844 11.935 60.1093 12.0532 60.159 12.1487C60.2088 12.2443 60.2779 12.3297 60.3663 12.4052C60.499 12.5259 60.6233 12.6063 60.7394 12.6466C60.861 12.6868 60.9881 12.7069 61.1208 12.7069ZM65.0982 13.4159C64.6781 13.4159 64.3548 13.3053 64.1282 13.0841C63.9071 12.8628 63.7965 12.5535 63.7965 12.1562V9.71983H64.6671V12.0733C64.6671 12.5057 64.8854 12.722 65.322 12.722C65.4657 12.722 65.5956 12.6943 65.7117 12.639C65.8278 12.5787 65.93 12.5057 66.0185 12.4203C66.1124 12.3297 66.1815 12.2342 66.2257 12.1336C66.2755 12.028 66.3004 11.8897 66.3004 11.7187V9.71983H67.1709V13.3254H66.3004V12.7371C66.2009 12.9483 66.0461 13.1142 65.8361 13.2349C65.626 13.3556 65.3801 13.4159 65.0982 13.4159ZM69.926 13.4159C69.5502 13.4159 69.2186 13.343 68.9311 13.1972C68.6493 13.0463 68.4282 12.8351 68.2679 12.5636C68.1076 12.287 68.0274 11.9626 68.0274 11.5905V11.4472C68.0274 11.1052 68.1076 10.7985 68.2679 10.5269C68.4282 10.2504 68.6493 10.0316 68.9311 9.87069C69.2186 9.70977 69.5474 9.62931 69.9177 9.62931C70.3212 9.62931 70.6584 9.70726 70.9292 9.86315C71.2 10.019 71.4046 10.2277 71.5427 10.4892C71.6809 10.7457 71.75 11.0323 71.75 11.3491V11.6659H68.8814C68.8925 12.0029 68.9919 12.2644 69.1799 12.4504C69.3678 12.6315 69.622 12.722 69.9426 12.722C70.429 12.722 70.7634 12.5183 70.9458 12.111L71.6837 12.4052C71.5455 12.727 71.3272 12.9759 71.0287 13.1519C70.7358 13.3279 70.3682 13.4159 69.926 13.4159ZM69.9177 10.2856C69.6635 10.2856 69.4452 10.356 69.2628 10.4968C69.0804 10.6325 68.9615 10.8287 68.9063 11.0851H70.8961C70.8684 10.8437 70.7745 10.6501 70.6142 10.5043C70.4539 10.3585 70.2217 10.2856 69.9177 10.2856Z" fill="white"/>
<path d="M43.25 29L54.5083 21.5H31.9917L43.25 29Z" fill="#363733"/>
</svg>
