<svg width="73" height="650" viewBox="0 0 73 650" fill="none" xmlns="http://www.w3.org/2000/svg">
<g clip-path="url(#clip0_454_1902)">
<path d="M0.800805 27.5996C0.800805 18.2663 3.93414 11.3329 10.2008 6.79961C16.5341 2.33294 25.4341 0.0996089 36.9008 0.0996094C48.3675 0.0996099 57.2341 2.33294 63.5008 6.79961C69.8341 11.3329 73.0008 18.2663 73.0008 27.5996C73.0008 31.1996 72.5008 34.3663 71.5008 37.0996C70.5675 39.8996 69.2341 42.2996 67.5008 44.2996C65.7675 46.2996 63.6675 47.9329 61.2008 49.1996C58.7341 50.5329 55.9675 51.5663 52.9008 52.2996L49.5008 38.2996C51.1675 37.8996 52.7008 37.4329 54.1008 36.8996C55.5008 36.3663 56.7008 35.6663 57.7008 34.7996C58.7008 33.9996 59.4675 32.9663 60.0008 31.6996C60.6008 30.4996 60.9008 29.0329 60.9008 27.2996C60.9008 23.2329 59.3008 20.3329 56.1008 18.5996C52.9675 16.9329 48.6008 16.0996 43.0008 16.0996H30.8008C25.2008 16.0996 20.8008 16.9329 17.6008 18.5996C14.4675 20.3329 12.9008 23.2329 12.9008 27.2996C12.9008 30.7663 13.9675 33.2663 16.1008 34.7996C18.2341 36.3996 20.9675 37.5663 24.3008 38.2996L20.9008 52.2996C17.8341 51.5663 15.0675 50.5329 12.6008 49.1996C10.1341 47.9329 8.00081 46.2996 6.20081 44.2996C4.46747 42.2996 3.13414 39.8996 2.20081 37.0996C1.26747 34.3663 0.800804 31.1996 0.800805 27.5996ZM0.800802 85.9605C0.800802 76.6272 3.96747 69.7272 10.3008 65.2605C16.6341 60.8605 25.5008 58.6605 36.9008 58.6605C48.3008 58.6605 57.1675 60.8605 63.5008 65.2605C69.8341 69.7272 73.0008 76.6272 73.0008 85.9605C73.0008 95.2939 69.8341 102.161 63.5008 106.561C57.1675 111.028 48.3008 113.261 36.9008 113.261C25.5008 113.261 16.6341 111.028 10.3008 106.561C3.96747 102.161 0.800802 95.2939 0.800802 85.9605ZM12.9008 85.9605C12.9008 90.2272 14.4675 93.1605 17.6008 94.7605C20.8008 96.4272 25.2341 97.2605 30.9008 97.2605H43.0008C48.6008 97.2605 52.9675 96.4272 56.1008 94.7605C59.3008 93.1605 60.9008 90.2272 60.9008 85.9605C60.9008 81.6939 59.3008 78.7272 56.1008 77.0605C52.9675 75.4605 48.6008 74.6605 43.0008 74.6605H30.8008C25.2008 74.6605 20.8008 75.4605 17.6008 77.0605C14.4675 78.7272 12.9008 81.6939 12.9008 85.9605ZM33.1008 159.022L52.6008 159.822V158.922L16.7008 145.922L52.6008 132.922V132.022L33.1008 132.822H2.0008V119.822H71.8008V137.522L48.3008 146.122V146.922L71.8008 155.522V172.022H2.0008V159.022H33.1008ZM2.0008 183.383H13.1008V198.383H60.7008V183.383H71.8008V228.383H60.7008V213.383H13.1008V228.383H2.0008V183.383ZM48.4008 255.844V254.744H2.0008V241.944H71.8008V259.944L25.4008 275.844V276.944H71.8008V289.744H2.0008V271.744L48.4008 255.844ZM11.9008 336.905V336.005C10.4341 335.405 9.03413 334.671 7.7008 333.805C6.36746 332.938 5.16746 331.871 4.1008 330.605C3.1008 329.338 2.3008 327.838 1.7008 326.105C1.1008 324.438 0.800792 322.538 0.800792 320.405C0.800792 317.005 1.6008 313.971 3.2008 311.305C4.8008 308.705 7.13413 306.505 10.2008 304.705C13.2675 302.905 17.0008 301.538 21.4008 300.605C25.8008 299.738 30.7675 299.305 36.3008 299.305C48.1675 299.305 57.2341 301.471 63.5008 305.805C69.8341 310.138 73.0008 316.838 73.0008 325.905C73.0008 329.505 72.5008 332.671 71.5008 335.405C70.5675 338.138 69.2008 340.471 67.4008 342.405C65.6675 344.405 63.5675 346.038 61.1008 347.305C58.6341 348.571 55.9008 349.571 52.9008 350.305L49.5008 336.305C50.9675 335.905 52.3675 335.438 53.7008 334.905C55.1008 334.438 56.3341 333.805 57.4008 333.005C58.4675 332.205 59.3008 331.205 59.9008 330.005C60.5675 328.805 60.9008 327.338 60.9008 325.605C60.9008 321.805 59.3341 319.105 56.2008 317.505C53.0675 315.971 48.6675 315.205 43.0008 315.205H31.6008C25.9341 315.205 21.4008 316.038 18.0008 317.705C14.6008 319.438 12.9008 322.471 12.9008 326.805C12.9008 330.205 13.9008 332.738 15.9008 334.405C17.9008 336.071 20.4675 336.905 23.6008 336.905H28.7008V325.005H39.3008V350.305H2.00079L2.0008 336.905H11.9008ZM0.800786 444.627C0.800787 438.76 1.76746 433.66 3.70079 429.327C5.63412 424.993 8.26746 421.493 11.6008 418.827L21.2008 427.527C18.4008 430.06 16.3341 432.827 15.0008 435.827C13.6674 438.893 13.0008 441.993 13.0008 445.127C13.0008 448.727 13.8008 451.46 15.4008 453.327C17.0008 455.193 19.3008 456.127 22.3008 456.127C24.7674 456.127 26.6341 455.393 27.9008 453.927C29.1674 452.527 30.0674 450.127 30.6008 446.727L31.8008 439.427C32.8674 433.16 35.1674 428.627 38.7008 425.827C42.3008 423.027 46.6675 421.627 51.8008 421.627C58.5341 421.627 63.7341 423.827 67.4008 428.227C71.1341 432.627 73.0008 438.793 73.0008 446.727C73.0008 452.127 72.1675 456.827 70.5008 460.827C68.8341 464.827 66.5674 468.06 63.7008 470.527L54.2008 462.027C56.2674 460.16 57.8675 457.96 59.0008 455.427C60.2008 452.893 60.8008 450.027 60.8008 446.827C60.8008 440.093 58.0341 436.727 52.5008 436.727C50.1008 436.727 48.3008 437.46 47.1008 438.927C45.9008 440.46 45.0008 442.927 44.4008 446.327L43.1008 453.627C42.1008 459.293 39.9674 463.66 36.7008 466.727C33.4341 469.793 29.0341 471.327 23.5008 471.327C20.2341 471.327 17.2008 470.76 14.4008 469.627C11.6674 468.493 9.26746 466.793 7.20079 464.527C5.20079 462.26 3.63412 459.46 2.50079 456.127C1.36746 452.86 0.800786 449.027 0.800786 444.627ZM0.800784 505.687C0.800784 496.354 3.96746 489.454 10.3008 484.987C16.6341 480.587 25.5008 478.387 36.9008 478.387C48.3008 478.387 57.1674 480.587 63.5008 484.987C69.8341 489.454 73.0008 496.354 73.0008 505.687C73.0008 515.021 69.8341 521.888 63.5008 526.288C57.1674 530.754 48.3008 532.987 36.9008 532.987C25.5008 532.987 16.6341 530.754 10.3008 526.288C3.96745 521.887 0.800783 515.021 0.800784 505.687ZM12.9008 505.687C12.9008 509.954 14.4674 512.887 17.6008 514.487C20.8008 516.154 25.2341 516.987 30.9008 516.987H43.0008C48.6008 516.987 52.9674 516.154 56.1008 514.487C59.3008 512.887 60.9008 509.954 60.9008 505.687C60.9008 501.421 59.3008 498.454 56.1008 496.787C52.9674 495.187 48.6008 494.387 43.0008 494.387H30.8008C25.2008 494.387 20.8008 495.187 17.6008 496.787C14.4674 498.454 12.9008 501.421 12.9008 505.687ZM0.800781 565.648C0.800781 556.315 3.96745 549.415 10.3008 544.948C16.6341 540.548 25.5008 538.348 36.9008 538.348C48.3008 538.348 57.1674 540.548 63.5008 544.948C69.8341 549.415 73.0008 556.315 73.0008 565.648C73.0008 574.982 69.8341 581.848 63.5008 586.248C57.1674 590.715 48.3008 592.948 36.9008 592.948C25.5008 592.948 16.6341 590.715 10.3008 586.248C3.96745 581.848 0.800781 574.982 0.800781 565.648ZM12.9008 565.648C12.9008 569.915 14.4674 572.848 17.6008 574.448C20.8008 576.115 25.2341 576.948 30.9008 576.948H43.0008C48.6008 576.948 52.9674 576.115 56.1008 574.448C59.3008 572.848 60.9008 569.915 60.9008 565.648C60.9008 561.382 59.3008 558.415 56.1008 556.748C52.9674 555.148 48.6008 554.348 43.0008 554.348H30.8008C25.2008 554.348 20.8008 555.148 17.6008 556.748C14.4674 558.415 12.9008 561.382 12.9008 565.648ZM48.4008 615.609V614.509H2.00078V601.709H71.8008V619.709L25.4008 635.609V636.709H71.8008V649.509H2.00078V631.509L48.4008 615.609Z" fill="white"/>
</g>
<defs>
<clipPath id="clip0_454_1902">
<rect width="73" height="650" fill="white"/>
</clipPath>
</defs>
</svg>
