<?xml version="1.0" encoding="UTF-8"?>
<svg id="youtube" xmlns="http://www.w3.org/2000/svg" version="1.1" viewBox="0 0 16 16">
  <!-- Generator: Adobe Illustrator 29.5.1, SVG Export Plug-In . SVG Version: 2.1.0 Build 141)  -->
  <defs>
    <style>
      .st0 {
        fill: #fff;
        fill-rule: evenodd;
      }
    </style>
  </defs>
  <path class="st0" d="M15.3,4.1c-.4-.8-.9-.9-1.9-1-1,0-3.4,0-5.5,0s-4.5,0-5.5,0c-1,0-1.4.2-1.9,1-.4.8-.7,2.1-.7,4.4h0c0,2.3.2,3.7.7,4.4.4.8.9.9,1.9,1,1,0,3.4,0,5.5,0s4.5,0,5.5,0c1,0,1.4-.2,1.9-1,.5-.8.7-2.1.7-4.4h0c0-2.3-.2-3.7-.7-4.4ZM6,11.5v-6l5,3-5,3Z"/>
</svg>